# xmcd
#
# Track frame offsets: 
#        150
#        11608
#        24102
#        34930
#        48303
#        59561
#        70365
#        83124
#        95437
#        107641
#        120483
#        134784
#        146280
#        156110
#        166791
#        177361
#        189509
#        203794
#        215338
#        226718
#        235782
#        250803
#
# Disc length: 3583 seconds
#
# Revision: 5
# Processed by: cddbd v1.5.2PL0 Copyright (c) Steve Scherf et al.
# Submitted via: ExactAudioCopyFreeDBPlugin 1.0
#
DISCID=240dfd16
DTITLE=Various Artist - A Cellarful of Motown
DYEAR=2005
DGENRE=Soul
TTITLE0=Earl Van Dyke - All Day All Night
TTITLE1=Eddie Holland - Take Me in Your Arms (Rock Me a Little While)
TTITLE2=Gladys Knight and The Pips - Everyday I'll Love You More Than Ye
TTITLE2=sterday
TTITLE3=J.J. Barnes - Every Time I See You, I Go Wild!
TTITLE4=The Elgins - My Two Arms - You =Tears
TTITLE5=Carolyn Crawford - Keep Stepping (Never Look Back)
TTITLE6=The Dalton Boys - Take My Hand
TTITLE7=The Marvelettes - The Boy from Crosstown
TTITLE8=The Monitors - I Can't Get Along Without You
TTITLE9=Stevie Wonder - I Gave Up Quality for Quantity
TTITLE10=Martha and The Vandellas - Start with Joy in the Morning
TTITLE11=The Detroit Spinners - What Am I Gonna Do Without You
TTITLE12=Kim Weston - After the Rain
TTITLE13=Marv Johnson - Let's Talk it Over
TTITLE14=Little Lisa - Choo Choo Train
TTITLE15=Tommy Good - I've Gotta Get Away
TTITLE16=The Vows - Show Girl
TTITLE17=The Creations - In the Dark
TTITLE18=Hattie Littles - Love, Trouble, Heartache and Misery
TTITLE19=The Temptations - Positively Absolutely Right
TTITLE20=Shorty Long - A Woman Just Won't Do Right
TTITLE21=Margaret Phelps - Motown Fanclub Talk
EXTD=YEAR: 2005
EXTT0=
EXTT1=
EXTT2=
EXTT3=
EXTT4=
EXTT5=
EXTT6=
EXTT7=
EXTT8=
EXTT9=
EXTT10=
EXTT11=
EXTT12=
EXTT13=
EXTT14=
EXTT15=
EXTT16=
EXTT17=
EXTT18=
EXTT19=
EXTT20=
EXTT21=
PLAYORDER=
